<svg width="378" height="116" viewBox="0 0 378 116" fill="none" xmlns="http://www.w3.org/2000/svg">
<g filter="url(#filter0_d_1_2)">
<path d="M27.792 26.952C28.56 26.184 29.616 25.656 30.96 25.368C32.4 25.08 33.744 24.84 34.992 24.648C37.776 24.552 39.792 25.128 41.04 26.376C42.384 27.624 43.296 29.256 43.776 31.272C44.256 33.192 44.496 35.304 44.496 37.608C44.592 39.912 44.784 41.976 45.072 43.8C48.72 44.472 52.224 44.952 55.584 45.24C59.04 45.432 62.544 45.144 66.096 44.376C67.632 39.96 68.208 35.64 67.824 31.416C67.44 27.192 66.336 23.304 64.512 19.752C62.688 16.104 60.24 12.888 57.168 10.104C54.096 7.32 50.64 5.112 46.8 3.47999C43.056 1.75199 39.024 0.743995 34.704 0.455998C30.384 0.167996 26.016 0.743995 21.6 2.18399C20.256 2.56799 18.96 3.04799 17.712 3.62399C16.464 4.10399 15.312 4.72799 14.256 5.49599C12.432 7.128 10.848 9 9.504 11.112C8.256 13.224 7.2 15.528 6.336 18.024C5.76 19.464 5.28 21.048 4.896 22.776C4.608 24.408 4.56 26.04 4.752 27.672C4.656 35.448 4.56 42.312 4.464 48.264C4.464 54.12 4.464 59.4 4.464 64.104C4.56 68.712 4.656 72.888 4.752 76.632C4.848 80.376 4.992 83.976 5.184 87.432C5.568 91.464 6.816 94.824 8.928 97.512C11.136 100.2 13.824 102.312 16.992 103.848C20.16 105.288 23.568 106.2 27.216 106.584C30.864 107.064 34.416 107.064 37.872 106.584C43.152 106.488 47.856 105.192 51.984 102.696C56.208 100.104 59.616 96.84 62.208 92.904C64.8 88.968 66.48 84.552 67.248 79.656C68.016 74.664 67.584 69.672 65.952 64.68C64.608 64.296 63.072 64.056 61.344 63.96C59.712 63.864 58.032 63.816 56.304 63.816C54.576 63.816 52.848 63.864 51.12 63.96C49.488 64.056 48 64.008 46.656 63.816C46.176 66.216 45.984 68.664 46.08 71.16C46.272 73.56 45.84 75.864 44.784 78.072C43.824 79.992 42.384 81.384 40.464 82.248C38.64 83.016 36.672 83.304 34.56 83.112C31.776 82.344 29.76 80.664 28.512 78.072C27.36 75.384 26.64 72.648 26.352 69.864C26.064 66.504 25.92 62.568 25.92 58.056C25.92 53.448 25.968 49.032 26.064 44.808C26.16 40.584 26.256 36.936 26.352 33.864C26.544 30.792 26.736 29.112 26.928 28.824C27.024 28.632 27.12 28.344 27.216 27.96C27.408 27.48 27.6 27.144 27.792 26.952ZM133.241 19.752C132.089 16.392 130.121 13.464 127.337 10.968C124.553 8.856 121.385 7.272 117.833 6.21599C114.377 5.064 110.777 4.392 107.033 4.19999C103.385 4.008 99.6885 4.296 95.9445 5.064C92.2965 5.736 88.8885 6.84 85.7205 8.376C84.4725 9.144 83.3685 10.008 82.4085 10.968C79.4325 14.328 77.4165 18.216 76.3605 22.632C75.4005 26.952 74.8725 31.272 74.7765 35.592C74.2965 43.176 74.2005 50.76 74.4885 58.344C74.8725 65.832 75.2085 73.32 75.4965 80.808C75.5925 83.592 75.8325 86.376 76.2165 89.16C76.6965 91.848 77.6085 94.392 78.9525 96.792C79.8165 98.712 80.9205 100.296 82.2645 101.544C83.6085 102.696 85.0965 103.656 86.7285 104.424C88.4565 105.192 90.2325 105.72 92.0565 106.008C93.9765 106.392 95.9445 106.68 97.9605 106.872C100.745 107.064 103.481 107.064 106.169 106.872C108.953 106.68 111.689 106.2 114.377 105.432C117.353 104.664 120.137 103.608 122.729 102.264C125.417 100.824 127.577 98.952 129.209 96.648C130.937 93.864 132.233 90.792 133.097 87.432C133.961 83.976 134.489 80.568 134.681 77.208L135.113 72.456C135.497 67.464 135.641 62.568 135.545 57.768C135.449 52.968 135.545 48.024 135.833 42.936C135.929 40.536 135.929 38.184 135.833 35.88C135.833 33.48 135.737 31.08 135.545 28.68C135.353 27.144 135.065 25.656 134.681 24.216C134.393 22.68 133.913 21.192 133.241 19.752ZM117.833 61.8C117.833 61.992 117.785 62.808 117.689 64.248C117.689 65.688 117.641 67.368 117.545 69.288C117.353 71.304 117.257 72.936 117.257 74.184C117.353 75.336 117.353 76.344 117.257 77.208C117.161 78.072 116.921 78.888 116.537 79.656C116.153 80.328 115.529 81.24 114.665 82.392C113.225 84.024 111.449 85.224 109.337 85.992C107.225 86.664 105.113 86.952 103.001 86.856C100.889 86.664 98.9205 86.04 97.0965 84.984C95.2725 83.928 93.8805 82.44 92.9205 80.52C91.9605 77.352 91.3845 74.04 91.1925 70.584C91.0005 67.032 90.6645 63.576 90.1845 60.216C89.9925 56.184 89.9445 52.152 90.0405 48.12C90.2325 44.088 90.7125 40.248 91.4805 36.6C92.6325 32.568 94.8885 29.256 98.2485 26.664C99.7845 25.512 101.561 24.696 103.577 24.216C105.593 23.736 107.561 23.88 109.481 24.648C111.689 25.704 113.417 27.336 114.665 29.544C116.009 31.752 116.777 34.2 116.969 36.888C117.065 38.52 117.161 40.296 117.257 42.216C117.449 44.04 117.545 45 117.545 45.096L117.833 54.888V61.8ZM202.85 19.752C201.698 16.392 199.73 13.464 196.946 10.968C194.162 8.856 190.994 7.272 187.442 6.21599C183.986 5.064 180.386 4.392 176.642 4.19999C172.994 4.008 169.298 4.296 165.554 5.064C161.906 5.736 158.498 6.84 155.33 8.376C154.082 9.144 152.978 10.008 152.018 10.968C149.042 14.328 147.026 18.216 145.97 22.632C145.01 26.952 144.482 31.272 144.386 35.592C143.906 43.176 143.81 50.76 144.098 58.344C144.482 65.832 144.818 73.32 145.106 80.808C145.202 83.592 145.442 86.376 145.826 89.16C146.306 91.848 147.218 94.392 148.562 96.792C149.426 98.712 150.53 100.296 151.874 101.544C153.218 102.696 154.706 103.656 156.338 104.424C158.066 105.192 159.842 105.72 161.666 106.008C163.586 106.392 165.554 106.68 167.57 106.872C170.354 107.064 173.09 107.064 175.778 106.872C178.562 106.68 181.298 106.2 183.986 105.432C186.962 104.664 189.746 103.608 192.338 102.264C195.026 100.824 197.186 98.952 198.818 96.648C200.546 93.864 201.842 90.792 202.706 87.432C203.57 83.976 204.098 80.568 204.29 77.208L204.722 72.456C205.106 67.464 205.25 62.568 205.154 57.768C205.058 52.968 205.154 48.024 205.442 42.936C205.538 40.536 205.538 38.184 205.442 35.88C205.442 33.48 205.346 31.08 205.154 28.68C204.962 27.144 204.674 25.656 204.29 24.216C204.002 22.68 203.522 21.192 202.85 19.752ZM187.442 61.8C187.442 61.992 187.394 62.808 187.298 64.248C187.298 65.688 187.25 67.368 187.154 69.288C186.962 71.304 186.866 72.936 186.866 74.184C186.962 75.336 186.962 76.344 186.866 77.208C186.77 78.072 186.53 78.888 186.146 79.656C185.762 80.328 185.138 81.24 184.274 82.392C182.834 84.024 181.058 85.224 178.946 85.992C176.834 86.664 174.722 86.952 172.61 86.856C170.498 86.664 168.53 86.04 166.706 84.984C164.882 83.928 163.49 82.44 162.53 80.52C161.57 77.352 160.994 74.04 160.802 70.584C160.61 67.032 160.274 63.576 159.794 60.216C159.602 56.184 159.554 52.152 159.65 48.12C159.842 44.088 160.322 40.248 161.09 36.6C162.242 32.568 164.498 29.256 167.858 26.664C169.394 25.512 171.17 24.696 173.186 24.216C175.202 23.736 177.17 23.88 179.09 24.648C181.298 25.704 183.026 27.336 184.274 29.544C185.618 31.752 186.386 34.2 186.578 36.888C186.674 38.52 186.77 40.296 186.866 42.216C187.058 44.04 187.154 45 187.154 45.096L187.442 54.888V61.8ZM266.411 57.336C265.931 56.76 265.595 56.28 265.403 55.896C265.211 55.512 265.307 54.984 265.691 54.312C267.611 51.048 269.243 47.496 270.587 43.656C272.027 39.816 272.747 35.88 272.747 31.848C272.747 26.472 271.883 21.96 270.155 18.312C268.427 14.568 266.075 11.544 263.099 9.24C260.123 6.83999 256.667 5.11199 252.731 4.05599C248.891 3 244.859 2.376 240.635 2.18399C236.411 1.992 232.139 2.184 227.819 2.75999C223.499 3.33599 219.419 4.15199 215.579 5.208L215.435 5.352C215.723 22.056 215.723 38.616 215.435 55.032C215.147 71.352 215.291 87.816 215.867 104.424C216.347 104.616 216.827 104.712 217.307 104.712C217.883 104.712 218.459 104.712 219.035 104.712C222.491 104.808 226.187 105 230.123 105.288C234.155 105.576 238.139 105.672 242.075 105.576C246.107 105.576 249.995 105.336 253.739 104.856C257.483 104.28 260.891 103.224 263.963 101.688C267.035 100.152 269.627 97.992 271.739 95.208C273.947 92.328 275.435 88.632 276.203 84.12C276.779 81.048 276.875 78.264 276.491 75.768C276.107 73.272 275.387 71.016 274.331 69C273.371 66.888 272.171 64.92 270.731 63.096C269.387 61.176 267.947 59.256 266.411 57.336ZM252.875 81.24C251.915 82.392 250.763 83.256 249.419 83.832C248.171 84.312 246.779 84.648 245.243 84.84C243.803 84.936 242.315 84.984 240.779 84.984C239.339 84.888 237.947 84.84 236.603 84.84L236.315 84.696C235.547 83.544 235.019 82.104 234.731 80.376C234.443 78.648 234.299 76.872 234.299 75.048C234.395 73.128 234.587 71.256 234.875 69.432C235.163 67.608 235.499 65.976 235.883 64.536C237.707 64.728 239.579 64.872 241.499 64.968C243.419 64.968 245.291 65.208 247.115 65.688C248.363 65.976 249.563 66.6 250.715 67.56C251.867 68.424 252.731 69.432 253.307 70.584C253.979 72.216 254.315 74.04 254.315 76.056C254.411 78.072 253.931 79.8 252.875 81.24ZM252.731 40.2C251.963 41.64 250.907 42.744 249.563 43.512C248.315 44.184 246.923 44.616 245.387 44.808C243.851 45 242.267 45.048 240.635 44.952C239.003 44.856 237.467 44.712 236.027 44.52C235.163 41.16 234.875 37.896 235.163 34.728C235.547 31.56 235.643 28.872 235.451 26.664C236.891 25.896 238.667 25.56 240.779 25.656C242.987 25.656 245.051 25.848 246.971 26.232C248.507 26.616 249.851 27.24 251.003 28.104C252.251 28.872 253.259 30.024 254.027 31.56C254.795 33.096 254.939 34.632 254.459 36.168C253.979 37.704 253.403 39.048 252.731 40.2ZM340.205 52.944C340.205 54.24 340.229 55.32 340.277 56.184C340.277 56.664 340.325 57.528 340.421 58.776L340.565 63.384C340.325 63.672 339.941 63.816 339.413 63.816C339.077 63.816 338.621 63.792 338.045 63.744C337.469 63.648 336.989 63.6 336.605 63.6C336.029 63.6 335.117 63.552 333.869 63.456C333.389 63.408 332.573 63.384 331.421 63.384C330.173 63.384 329.213 63.408 328.541 63.456C328.541 62.448 328.493 61.128 328.397 59.496L328.325 58.344C328.229 56.232 328.205 54.36 328.253 52.728L340.205 52.944ZM340.493 68.784C340.493 71.28 340.445 74.928 340.349 79.728L340.277 83.76C340.181 88.176 340.133 91.488 340.133 93.696C340.133 97.824 340.229 101.448 340.421 104.568C340.181 104.904 339.677 105.12 338.909 105.216C338.189 105.36 337.181 105.432 335.885 105.432C334.397 105.432 333.365 105.408 332.789 105.36C330.917 105.264 329.333 105.408 328.037 105.792C328.277 102.576 328.397 99.336 328.397 96.072C328.397 94.056 328.349 91.08 328.253 87.144C328.157 83.88 328.109 81.048 328.109 78.648C328.109 75.096 328.253 71.664 328.541 68.352C329.213 68.256 329.789 68.208 330.269 68.208C330.701 68.208 331.037 68.232 331.277 68.28C334.253 68.424 336.581 68.472 338.261 68.424L340.493 68.784ZM355.903 67.632C356.143 67.68 357.007 67.704 358.495 67.704C358.783 67.656 359.383 67.632 360.295 67.632C360.871 67.632 361.279 67.656 361.519 67.704C363.199 67.8 364.783 68.136 366.271 68.712C367.807 69.24 369.031 69.96 369.943 70.872C371.335 71.976 372.247 73.704 372.679 76.056C373.111 78.408 373.327 81.144 373.327 84.264V86.64C373.183 90.72 372.943 94.152 372.607 96.936C372.271 99.72 371.695 101.592 370.879 102.552C369.919 103.896 368.527 104.832 366.703 105.36C364.927 105.888 362.839 106.152 360.439 106.152C359.527 106.152 358.255 106.104 356.623 106.008C355.087 105.912 353.911 105.864 353.095 105.864C350.551 105.384 348.319 104.304 346.399 102.624C344.911 101.184 343.879 99.384 343.303 97.224C342.727 95.016 342.439 92.544 342.439 89.808L342.367 81.6C342.223 80.304 342.367 78.432 342.799 75.984C343.279 73.536 343.759 72.144 344.239 71.808C344.767 70.464 346.135 69.432 348.343 68.712C350.599 67.992 353.119 67.632 355.903 67.632ZM354.391 82.176C354.343 82.656 354.295 83.328 354.247 84.192C354.199 85.008 354.175 85.632 354.175 86.064L354.103 87.504C354.103 88.704 354.055 90.024 353.959 91.464C354.007 92.52 354.415 93.384 355.183 94.056C355.951 94.728 356.815 95.064 357.775 95.064C358.735 95.064 359.695 94.848 360.655 94.416C360.943 94.272 361.303 93.48 361.735 92.04L361.807 91.68C362.095 89.28 362.239 87.528 362.239 86.424C362.239 85.272 362.143 84.24 361.951 83.328C361.711 82.08 361.231 81.096 360.511 80.376C359.839 79.656 358.975 79.296 357.919 79.296C357.727 79.296 357.343 79.344 356.767 79.44C355.567 79.824 354.871 80.352 354.679 81.024L354.391 82.176Z" fill="black"/>
<path d="M299.18 105C296.972 105 295.052 104.184 293.42 102.552C291.788 100.92 290.972 99 290.972 96.792V88.728C290.972 86.52 291.788 84.6 293.42 82.968C295.052 81.336 296.972 80.52 299.18 80.52H305.804C308.012 80.52 309.932 81.336 311.564 82.968C313.196 84.6 314.012 86.52 314.012 88.728V96.792C314.012 99 313.196 100.92 311.564 102.552C309.932 104.184 308.012 105 305.804 105H299.18Z" fill="#E40FC2"/>
</g>
<defs>
<filter id="filter0_d_1_2" x="0.464005" y="0.0239983" width="376.863" height="115.28" filterUnits="userSpaceOnUse" color-interpolation-filters="sRGB">
<feFlood flood-opacity="0" result="BackgroundImageFix"/>
<feColorMatrix in="SourceAlpha" type="matrix" values="0 0 0 0 0 0 0 0 0 0 0 0 0 0 0 0 0 0 127 0" result="hardAlpha"/>
<feOffset dy="4"/>
<feGaussianBlur stdDeviation="2"/>
<feComposite in2="hardAlpha" operator="out"/>
<feColorMatrix type="matrix" values="0 0 0 0 0 0 0 0 0 0 0 0 0 0 0 0 0 0 0.25 0"/>
<feBlend mode="normal" in2="BackgroundImageFix" result="effect1_dropShadow_1_2"/>
<feBlend mode="normal" in="SourceGraphic" in2="effect1_dropShadow_1_2" result="shape"/>
</filter>
</defs>
</svg>
